<svg xmlns="http://www.w3.org/2000/svg" width="76.345" height="70.369" viewBox="0 0 76.345 70.369">
  <g id="svgexport-6_77_" data-name="svgexport-6 (77)" transform="translate(0 -20)">
    <g id="Group_1634" data-name="Group 1634" transform="translate(0 20)">
      <path id="Path_763" data-name="Path 763" d="M75.225,88.128H72.76V56.9h2.465a1.121,1.121,0,0,0,.945-1.722L67.8,42.033a1.12,1.12,0,0,0-.945-.519H44.613l-5.32-5.32V31.8H50.125a1.12,1.12,0,0,0,.932-1.742L49.081,27.1l1.976-2.964a1.12,1.12,0,0,0-.932-1.742H39.293v-1.27a1.121,1.121,0,0,0-2.241,0V36.194l-5.32,5.32H9.487a1.121,1.121,0,0,0-.945.519L.175,55.181A1.12,1.12,0,0,0,1.12,56.9H3.586V88.128H1.12a1.121,1.121,0,0,0,0,2.241h74.1a1.121,1.121,0,0,0,0-2.241ZM66.243,43.755l6.941,10.906H57.76L46.854,43.755ZM48.031,24.632,46.8,26.475a1.12,1.12,0,0,0,0,1.243l1.229,1.844H39.293v-4.93ZM10.1,43.755H29.491L18.585,54.662H3.162ZM5.827,56.9H19.049a1.108,1.108,0,0,0,.111-.006l.047-.007.061-.009.054-.013.052-.013.052-.018.051-.019.048-.022.052-.025.045-.026c.016-.01.033-.019.049-.03s.032-.024.048-.036.027-.019.039-.03a1.081,1.081,0,0,0,.082-.075L38.173,38.243,56.5,56.574c.026.026.054.051.082.075l.039.029c.016.012.032.025.049.036l.049.03.045.027.051.025.048.022.051.019.053.019.052.013.055.013.059.009.049.007c.037,0,.074.006.111.006H70.518V88.128H46.464V72.515A3.515,3.515,0,0,0,42.953,69H33.392a3.515,3.515,0,0,0-3.511,3.511V88.128H5.827Zm38.4,16.883h-12.1v-1.27a1.271,1.271,0,0,1,1.27-1.27h9.562a1.271,1.271,0,0,1,1.27,1.27Zm-12.1,2.241h4.93v12.1h-4.93Zm7.171,0h4.93v12.1h-4.93Z" transform="translate(0 -20)" fill="#fff"/>
      <path id="Path_764" data-name="Path 764" d="M208.292,228.584A8.292,8.292,0,1,0,200,220.292,8.3,8.3,0,0,0,208.292,228.584Zm0-14.343a6.051,6.051,0,1,1-6.051,6.051A6.058,6.058,0,0,1,208.292,214.241Z" transform="translate(-170.119 -183.314)" fill="#fff"/>
      <path id="Path_765" data-name="Path 765" d="M228.706,241.827a1.121,1.121,0,0,0,1.121-1.121v-3.586a1.121,1.121,0,0,0-2.241,0v2.465h-2.465a1.121,1.121,0,1,0,0,2.241Z" transform="translate(-190.533 -203.729)" fill="#fff"/>
      <path id="Path_766" data-name="Path 766" d="M135.1,388h-5.976A1.121,1.121,0,0,0,128,389.121v7.171a1.121,1.121,0,0,0,1.121,1.121H135.1a1.121,1.121,0,0,0,1.121-1.121v-7.171A1.121,1.121,0,0,0,135.1,388Zm-1.121,2.241v1.345h-3.735v-1.345Zm-3.735,4.93v-1.345h3.735v1.345Z" transform="translate(-108.876 -333.019)" fill="#fff"/>
      <path id="Path_767" data-name="Path 767" d="M63.1,388H57.121A1.121,1.121,0,0,0,56,389.121v7.171a1.121,1.121,0,0,0,1.121,1.121H63.1a1.121,1.121,0,0,0,1.121-1.121v-7.171A1.121,1.121,0,0,0,63.1,388Zm-1.121,2.241v1.345H58.241v-1.345Zm-3.735,4.93v-1.345h3.735v1.345Z" transform="translate(-47.633 -333.019)" fill="#fff"/>
      <path id="Path_768" data-name="Path 768" d="M134.723,292h-5.229A1.5,1.5,0,0,0,128,293.494v7.993a1.121,1.121,0,0,0,1.121,1.121H135.1a1.121,1.121,0,0,0,1.121-1.121v-7.993A1.5,1.5,0,0,0,134.723,292Zm-.747,2.241v2.54h-3.735v-2.54Zm-3.735,6.126v-1.345h3.735v1.345Z" transform="translate(-108.876 -251.362)" fill="#fff"/>
      <path id="Path_769" data-name="Path 769" d="M62.723,292H57.494A1.5,1.5,0,0,0,56,293.494v7.993a1.121,1.121,0,0,0,1.121,1.121H63.1a1.121,1.121,0,0,0,1.121-1.121v-7.993A1.5,1.5,0,0,0,62.723,292Zm-.747,2.241v2.54H58.241v-2.54Zm-3.735,6.126v-1.345h3.735v1.345Z" transform="translate(-47.633 -251.362)" fill="#fff"/>
      <path id="Path_770" data-name="Path 770" d="M401.121,397.412H407.1a1.121,1.121,0,0,0,1.121-1.121v-7.171A1.121,1.121,0,0,0,407.1,388h-5.976A1.121,1.121,0,0,0,400,389.121v7.171A1.121,1.121,0,0,0,401.121,397.412Zm1.121-2.241v-1.345h3.735v1.345Zm3.735-4.93v1.345h-3.735v-1.345Z" transform="translate(-340.238 -333.019)" fill="#fff"/>
      <path id="Path_771" data-name="Path 771" d="M329.121,397.412H335.1a1.121,1.121,0,0,0,1.12-1.121v-7.171A1.121,1.121,0,0,0,335.1,388h-5.976A1.121,1.121,0,0,0,328,389.121v7.171A1.121,1.121,0,0,0,329.121,397.412Zm1.121-2.241v-1.345h3.735v1.345Zm3.735-4.93v1.345h-3.735v-1.345Z" transform="translate(-278.995 -333.019)" fill="#fff"/>
      <path id="Path_772" data-name="Path 772" d="M401.121,302.608H407.1a1.121,1.121,0,0,0,1.121-1.121v-7.993A1.5,1.5,0,0,0,406.723,292h-5.229A1.5,1.5,0,0,0,400,293.494v7.993A1.121,1.121,0,0,0,401.121,302.608Zm1.121-2.241v-1.345h3.735v1.345Zm3.735-6.126v2.54h-3.735v-2.54Z" transform="translate(-340.238 -251.362)" fill="#fff"/>
      <path id="Path_773" data-name="Path 773" d="M329.121,302.608H335.1a1.121,1.121,0,0,0,1.12-1.121v-7.993A1.5,1.5,0,0,0,334.723,292h-5.229A1.5,1.5,0,0,0,328,293.494v7.993A1.121,1.121,0,0,0,329.121,302.608Zm1.121-2.241v-1.345h3.735v1.345Zm3.735-6.126v2.54h-3.735v-2.54Z" transform="translate(-278.995 -251.362)" fill="#fff"/>
    </g>
  </g>
</svg>
