<svg xmlns="http://www.w3.org/2000/svg" width="74" height="74" viewBox="0 0 74 74">
  <g id="svgexport-6_62_" data-name="svgexport-6 (62)" transform="translate(0)">
    <g id="Group_235" data-name="Group 235" transform="translate(0 0)">
      <path id="Path_70" data-name="Path 70" d="M74,38.3V28.184a2.168,2.168,0,0,0-2.168-2.168h-4.48a13.018,13.018,0,0,0-6.718-11.383,8.672,8.672,0,1,0-12.579,0,13.018,13.018,0,0,0-6.718,11.383H32.664a13.018,13.018,0,0,0-6.718-11.383,8.672,8.672,0,1,0-12.579,0A13.018,13.018,0,0,0,6.648,26.016H2.168A2.168,2.168,0,0,0,0,28.184V38.3a2.168,2.168,0,0,0,2.168,2.168h8.991a8.659,8.659,0,0,0,2.208,7.7A13.018,13.018,0,0,0,6.648,59.547H2.168A2.168,2.168,0,0,0,0,61.715V71.832A2.168,2.168,0,0,0,2.168,74H71.832A2.168,2.168,0,0,0,74,71.832V61.715a2.168,2.168,0,0,0-2.168-2.168H32.664a13.018,13.018,0,0,0-6.718-11.383,8.659,8.659,0,0,0,2.208-7.7H71.832A2.168,2.168,0,0,0,74,38.3ZM54.344,4.336a4.336,4.336,0,1,1-4.336,4.336A4.341,4.341,0,0,1,54.344,4.336Zm0,13.008a8.682,8.682,0,0,1,8.672,8.672H45.672A8.682,8.682,0,0,1,54.344,17.344ZM19.656,4.336A4.336,4.336,0,1,1,15.32,8.672,4.341,4.341,0,0,1,19.656,4.336Zm0,13.008a8.682,8.682,0,0,1,8.672,8.672H10.984A8.682,8.682,0,0,1,19.656,17.344ZM69.664,63.883v5.781H4.336V63.883ZM28.328,59.547H10.984a8.672,8.672,0,0,1,17.344,0ZM15.32,42.2a4.336,4.336,0,1,1,4.336,4.336A4.341,4.341,0,0,1,15.32,42.2Zm54.344-6.07H25.841a8.653,8.653,0,0,0-12.37,0H4.336V30.352H69.664Z" transform="translate(0 0)" fill="#fff"/>
      <path id="Path_71" data-name="Path 71" d="M362,312.168V316.5a2.168,2.168,0,0,0,4.336,0v-4.336a2.168,2.168,0,0,0-4.336,0Z" transform="translate(-309.68 -265.195)" fill="#fff"/>
      <path id="Path_72" data-name="Path 72" d="M419.525,325.635l-2.891,2.891a2.168,2.168,0,1,0,3.066,3.066l2.891-2.891a2.168,2.168,0,0,0-3.066-3.066Z" transform="translate(-355.875 -278.027)" fill="#fff"/>
      <path id="Path_73" data-name="Path 73" d="M286.635,325.635a2.168,2.168,0,0,0,0,3.066l2.891,2.891a2.168,2.168,0,1,0,3.066-3.066l-2.891-2.891A2.168,2.168,0,0,0,286.635,325.635Z" transform="translate(-244.664 -278.027)" fill="#fff"/>
    </g>
  </g>
</svg>
