<svg xmlns="http://www.w3.org/2000/svg" width="30.703" height="21.534" viewBox="0 0 30.703 21.534">
  <g id="كتب" transform="translate(-106.965 -769)">
    <g id="كتب-2" data-name="كتب" transform="translate(106.965 749.895)">
      <path id="Path_36" data-name="Path 36" d="M30.229,26.249l.008,0a.48.48,0,0,0,.466-.476.474.474,0,0,0-.474-.48c-.135-.043-.49-.627-.49-1.679s.355-1.636.491-1.679l.007,0a.48.48,0,0,0,.038-.953L14.815,19.159a7.681,7.681,0,0,0-1.812,0L1.862,20.5H1.854C.952,20.559.48,21.852.48,23.132a3.758,3.758,0,0,0,.576,2.158A3.755,3.755,0,0,0,.48,27.449a3.868,3.868,0,0,0,.528,2.09A5.192,5.192,0,0,0,0,32.964c0,1.891.648,3.805,1.887,3.837L18.17,38.717a.441.441,0,0,0,.056,0,.451.451,0,0,0,.057,0l3.78-.454v1.9a.48.48,0,0,0,.352.462.49.49,0,0,0,.128.017.48.48,0,0,0,.411-.233l1.072-1.787,1.011,1.348a.48.48,0,0,0,.863-.288V37.8l4.374-.525a.48.48,0,0,0-.057-.956c-.336,0-.959-1.093-.959-2.878,0-1.77.589-2.794.959-2.878a.483.483,0,0,0,.485-.48.475.475,0,0,0-.421-.476l-.057,0c-.138-.053-.487-.635-.487-1.679S30.093,26.293,30.229,26.249ZM15.486,37.435a5.94,5.94,0,0,1-.617-2.931,6.35,6.35,0,0,1,.553-2.83L17,31.86a6.062,6.062,0,0,0-.694,3.023,6.634,6.634,0,0,0,.528,2.711Zm-1.936-.228a6.053,6.053,0,0,1-.6-2.9,6.207,6.207,0,0,1,.569-2.85l.9.106A7.805,7.805,0,0,0,13.91,34.5a8.071,8.071,0,0,0,.454,2.8ZM5.8,36.3a6.519,6.519,0,0,1-.512-2.734,5.69,5.69,0,0,1,.668-3l6.505.764c.014,0,.027.009.042.009h.011a7.815,7.815,0,0,0-.52,2.964,8.137,8.137,0,0,0,.444,2.774Zm-1.915-.225a6.475,6.475,0,0,1-.515-2.742,5.693,5.693,0,0,1,.662-2.991l.893.105a7.448,7.448,0,0,0-.6,3.118,8.339,8.339,0,0,0,.384,2.608ZM1.929,29.127c-.135-.043-.49-.627-.49-1.679a2.27,2.27,0,0,1,.476-1.676l2.272.265c.008,0,.014.006.022.007l9.648,1.132a5.711,5.711,0,0,0-.306,1.951,6.357,6.357,0,0,0,.148,1.382l-.918-.107a4.279,4.279,0,0,1-.31-1.754,3.774,3.774,0,0,1,.1-.851.48.48,0,0,0-.935-.216,4.762,4.762,0,0,0-.12,1.067,6.034,6.034,0,0,0,.209,1.631l-5.942-.7h-.01l-1.912-.225H3.844Zm2.695-7.354,1.862.218h0l10.658,1.256a4.291,4.291,0,0,0-.361,1.8,4.594,4.594,0,0,0,.252,1.535L6.658,25.366a5.794,5.794,0,0,1-.183-1.515,7.075,7.075,0,0,1,.055-.9.48.48,0,0,0-.952-.123,8.034,8.034,0,0,0-.063,1.021,7.278,7.278,0,0,0,.131,1.4l-1.071-.126a5,5,0,0,1-.259-1.751,4.292,4.292,0,0,1,.307-1.6Zm13.6,1.6h0a.453.453,0,0,0,.057,0L29.027,22.08a4.591,4.591,0,0,0-.248,1.531,4.28,4.28,0,0,0,.363,1.806l-10.91,1.308c-.139-.055-.485-.632-.485-1.674A2.248,2.248,0,0,1,18.227,23.372Zm-3.5,7.258a4.93,4.93,0,0,1-.216-1.5,3.879,3.879,0,0,1,.351-1.833l2.29.269a4.281,4.281,0,0,0-.363,1.8,4.594,4.594,0,0,0,.252,1.535Zm3.508.412c-.14-.055-.486-.632-.486-1.675a2.248,2.248,0,0,1,.48-1.679.45.45,0,0,0,.057,0L29.028,26.4a4.591,4.591,0,0,0-.249,1.531,4.231,4.231,0,0,0,.374,1.8ZM13.117,20.11a6.741,6.741,0,0,1,1.585,0l11.454,1.347-7.93.952L6.6,21.039h0l-.609-.071Zm-11.2,1.343,1.731.2a5.32,5.32,0,0,0-.285,1.716A6.955,6.955,0,0,0,3.536,25l-1.607-.187c-.135-.043-.49-.627-.49-1.679a2.3,2.3,0,0,1,.473-1.676Zm.006,14.389c-.336,0-.959-1.093-.959-2.878s.613-2.862.952-2.875L3,30.217a7.466,7.466,0,0,0-.594,3.112A8.31,8.31,0,0,0,2.8,35.942l-.821-.1A.435.435,0,0,0,1.919,35.842Zm22.447,1.631a.472.472,0,0,0-.409-.192.48.48,0,0,0-.384.232l-.551.914V34.313l1.919-.231v4.159Zm1.535-.636v-2.87l.3-.036a.48.48,0,1,0-.114-.953l-.719.087h0l-2.878.345c-.005,0-.01,0-.015,0l-.6.072a.48.48,0,0,0,.055.956.453.453,0,0,0,.057,0l.077-.01V37.3l-3.837.46-.042,0c-.331-.08-.917-1.1-.917-2.87,0-1.785.624-2.878.959-2.878a.45.45,0,0,0,.057,0l10.543-1.264a6.628,6.628,0,0,0-.528,2.706,6.083,6.083,0,0,0,.69,3.022Z" fill="#4d80e4"/>
    </g>
  </g>
</svg>
