<svg xmlns="http://www.w3.org/2000/svg" width="28.111" height="27.162" viewBox="0 0 28.111 27.162">
  <g id="شات" transform="translate(-246.962 -769)">
    <g id="svgexport-6_40_" data-name="svgexport-6 (40)" transform="translate(246.962 769)">
      <path id="Path_10" data-name="Path 10" d="M.949,29A.949.949,0,0,1,0,28.057V15.882A4.682,4.682,0,0,1,4.682,11.2h9.373a4.682,4.682,0,0,1,4.682,4.682V21.5a4.682,4.682,0,0,1-4.682,4.682H5L1.485,28.822A.94.94,0,0,1,.949,29ZM4.691,13.08A2.811,2.811,0,0,0,1.88,15.891v10.3L4.129,24.5a.94.94,0,0,1,.562-.184h9.364A2.811,2.811,0,0,0,16.866,21.5V15.882a2.811,2.811,0,0,0-2.811-2.811Z" transform="translate(0 -1.836)" fill="#4d80e4"/>
      <path id="Path_11" data-name="Path 11" d="M28.458,18.329a.931.931,0,0,1-.562-.184l-3.514-2.635H22.836a.94.94,0,1,1,0-1.871h1.88a.931.931,0,0,1,.562.184l2.249,1.687V5.222a2.811,2.811,0,0,0-2.811-2.811H15.352A2.811,2.811,0,0,0,12.54,5.222V7.093a.94.94,0,1,1-1.871,0V5.222A4.682,4.682,0,0,1,15.352.54h9.364a4.682,4.682,0,0,1,4.691,4.682V17.4a.949.949,0,0,1-.949.931Z" transform="translate(-1.296 -0.54)" fill="#4d80e4"/>
      <path id="Path_12" data-name="Path 12" d="M11.871,18.43H6.257a.94.94,0,1,1,0-1.871h5.613a.94.94,0,1,1,0,1.871Z" transform="translate(-0.635 -2.487)" fill="#4d80e4"/>
      <path id="Path_13" data-name="Path 13" d="M9.068,22.69H6.257a.94.94,0,1,1,0-1.871H9.068a.94.94,0,1,1,0,1.871Z" transform="translate(-0.635 -3.004)" fill="#4d80e4"/>
    </g>
  </g>
</svg>
