<svg xmlns="http://www.w3.org/2000/svg" width="68.455" height="70.467" viewBox="0 0 68.455 70.467">
  <g id="svgexport-6_61_" data-name="svgexport-6 (61)" transform="translate(-7.308)">
    <g id="Group_233" data-name="Group 233" transform="translate(7.308)">
      <path id="Path_62" data-name="Path 62" d="M59.227,296.795H11.781a2.411,2.411,0,0,1-2.409-2.409V265.875a1.032,1.032,0,0,0-2.064,0v28.511a4.478,4.478,0,0,0,4.473,4.473H59.227a1.032,1.032,0,0,0,0-2.064Z" transform="translate(-7.308 -228.393)" fill="#fff"/>
      <path id="Path_63" data-name="Path 63" d="M351.371,227.664h11.162a1.759,1.759,0,0,0,1.757-1.757V214.745a1.759,1.759,0,0,0-1.757-1.757H351.371a1.759,1.759,0,0,0-1.757,1.757v11.162A1.759,1.759,0,0,0,351.371,227.664Zm.307-12.612h10.547V225.6H351.678Z" transform="translate(-302.502 -183.674)" fill="#fff"/>
      <path id="Path_64" data-name="Path 64" d="M202.683,363.354a1.759,1.759,0,0,0,1.757,1.757H215.6a1.759,1.759,0,0,0,1.757-1.757V352.192a1.759,1.759,0,0,0-1.757-1.757H204.44a1.759,1.759,0,0,0-1.757,1.757Zm2.064-10.855h10.547v10.547H204.747Z" transform="translate(-175.793 -302.205)" fill="#fff"/>
      <path id="Path_65" data-name="Path 65" d="M55.751,363.354a1.759,1.759,0,0,0,1.757,1.757H68.67a1.759,1.759,0,0,0,1.757-1.757V352.192a1.759,1.759,0,0,0-1.757-1.757H57.508a1.759,1.759,0,0,0-1.757,1.757ZM57.815,352.5H68.363v10.547H57.815Z" transform="translate(-49.084 -302.205)" fill="#fff"/>
      <path id="Path_66" data-name="Path 66" d="M349.613,363.354a1.759,1.759,0,0,0,1.757,1.757h11.162a1.759,1.759,0,0,0,1.757-1.757V352.192a1.759,1.759,0,0,0-1.757-1.757H351.37a1.759,1.759,0,0,0-1.757,1.757Zm2.064-10.855h10.547v10.547H351.677Z" transform="translate(-302.501 -302.205)" fill="#fff"/>
      <path id="Path_67" data-name="Path 67" d="M215.6,212.988H204.439a1.759,1.759,0,0,0-1.757,1.757v11.162a1.759,1.759,0,0,0,1.757,1.757H215.6a1.759,1.759,0,0,0,1.757-1.757v-6.243l2.67-2.688a1.032,1.032,0,0,0-1.465-1.455l-1.205,1.213v-1.989A1.759,1.759,0,0,0,215.6,212.988Zm-.307,12.612H204.746V215.052h10.547v3.761l-2.978,3-2.261-2.221a1.032,1.032,0,0,0-1.447,1.473L211.6,224a1.032,1.032,0,0,0,1.456-.009l2.236-2.251Z" transform="translate(-175.793 -183.674)" fill="#fff"/>
      <path id="Path_68" data-name="Path 68" d="M68.67,212.988H57.508a1.759,1.759,0,0,0-1.757,1.757v11.162a1.759,1.759,0,0,0,1.757,1.757H68.67a1.759,1.759,0,0,0,1.757-1.757v-7.178l1.741-1.753a1.032,1.032,0,0,0-1.465-1.455l-.276.278v-1.054A1.759,1.759,0,0,0,68.67,212.988ZM68.363,225.6H57.815V215.052H68.363v2.825l-3.906,3.933L62.2,219.59a1.032,1.032,0,1,0-1.447,1.473L63.742,224a1.032,1.032,0,0,0,1.456-.009l3.165-3.187Z" transform="translate(-49.084 -183.674)" fill="#fff"/>
      <path id="Path_69" data-name="Path 69" d="M71.29,6.737h-5V4.3a4.3,4.3,0,0,0-8.6,0V6.737H45.833V4.3a4.3,4.3,0,1,0-8.6,0V6.737H25.379V4.3a4.3,4.3,0,1,0-8.6,0V6.737h-5A4.478,4.478,0,0,0,7.308,11.21V32.984a1.032,1.032,0,0,0,2.064,0V23.638H50.118a1.032,1.032,0,1,0,0-2.064H9.372V11.21A2.411,2.411,0,0,1,11.781,8.8h5v2.439a4.3,4.3,0,0,0,8.6,0V8.8H37.238v2.439a4.3,4.3,0,0,0,8.6,0V8.8H57.692v2.439a4.3,4.3,0,0,0,8.6,0V8.8h5A2.411,2.411,0,0,1,73.7,11.21V21.574H54.616a1.032,1.032,0,0,0,0,2.064H73.7V65.994A2.411,2.411,0,0,1,71.29,68.4H63.726a1.032,1.032,0,0,0,0,2.064H71.29a4.478,4.478,0,0,0,4.473-4.473V11.21A4.478,4.478,0,0,0,71.29,6.737Zm-47.975,4.5a2.233,2.233,0,0,1-4.467,0V4.3a2.233,2.233,0,0,1,4.467,0v6.943Zm20.454,0a2.233,2.233,0,1,1-4.466,0V4.3a2.233,2.233,0,1,1,4.466,0Zm20.454,0a2.233,2.233,0,0,1-4.467,0V4.3a2.233,2.233,0,0,1,4.467,0Z" transform="translate(-7.308)" fill="#fff"/>
    </g>
  </g>
</svg>
