<svg xmlns="http://www.w3.org/2000/svg" width="64.585" height="70.467" viewBox="0 0 64.585 70.467">
  <g id="svgexport-6_63_" data-name="svgexport-6 (63)" transform="translate(-42.984)">
    <g id="Group_237" data-name="Group 237" transform="translate(42.984)">
      <path id="Path_74" data-name="Path 74" d="M94.188,85.642a2.247,2.247,0,0,0-.012,4.495,8.889,8.889,0,0,1,8.878,8.892V101.4H47.5V99.029a8.89,8.89,0,0,1,8.878-8.892,2.247,2.247,0,0,0-.007-4.495A13.4,13.4,0,0,0,42.984,99.029V136.86a13.4,13.4,0,0,0,13.379,13.389H94.194a13.394,13.394,0,0,0,13.375-13.389V99.029A13.4,13.4,0,0,0,94.188,85.642Zm.006,60.092H56.363A8.862,8.862,0,0,1,47.5,136.86V105.915h55.554V136.86A8.858,8.858,0,0,1,94.194,145.734Z" transform="translate(-42.984 -79.783)" fill="#fff"/>
      <path id="Path_75" data-name="Path 75" d="M380.785,90.411h14.045a2.224,2.224,0,1,0,0-4.447H380.785a2.224,2.224,0,1,0,0,4.447Z" transform="translate(-355.581 -80.083)" fill="#fff"/>
      <path id="Path_76" data-name="Path 76" d="M267.263,562.964H232.839a2.258,2.258,0,0,0,0,4.516h34.424a2.258,2.258,0,0,0,0-4.516Z" transform="translate(-217.757 -524.448)" fill="#fff"/>
      <path id="Path_77" data-name="Path 77" d="M394.965,715.964H380.3a2.258,2.258,0,0,0,0,4.516h14.666a2.258,2.258,0,0,0,0-4.516Z" transform="translate(-355.128 -666.98)" fill="#fff"/>
      <path id="Path_78" data-name="Path 78" d="M293.24,17.476a2.256,2.256,0,0,0,2.258-2.247V2.247a2.258,2.258,0,0,0-4.516,0V15.229A2.256,2.256,0,0,0,293.24,17.476Z" transform="translate(-274.015)" fill="#fff"/>
      <path id="Path_79" data-name="Path 79" d="M675.24,17.476a2.256,2.256,0,0,0,2.258-2.247V2.247a2.258,2.258,0,0,0-4.516,0V15.229A2.256,2.256,0,0,0,675.24,17.476Z" transform="translate(-629.88)" fill="#fff"/>
    </g>
  </g>
</svg>
