<svg xmlns="http://www.w3.org/2000/svg" width="63" height="63" viewBox="0 0 63 63">
  <g id="Group_26" data-name="Group 26" transform="translate(-212.433 -406.433)">
    <circle id="Ellipse_7" data-name="Ellipse 7" cx="31.5" cy="31.5" r="31.5" transform="translate(212.433 406.433)" fill="#fff" opacity="0.29"/>
    <circle id="Ellipse_5" data-name="Ellipse 5" cx="25" cy="25" r="25" transform="translate(218.433 412.433)" fill="#fff" opacity="0.43"/>
    <circle id="Ellipse_6" data-name="Ellipse 6" cx="19.5" cy="19.5" r="19.5" transform="translate(223.433 417.433)" fill="#ff9200"/>
    <g id="svgexport-6_52_" data-name="svgexport-6 (52)" transform="translate(237.075 430.177)">
      <g id="Play" transform="translate(0)">
        <path id="Path_46" data-name="Path 46" d="M20.106,12.288l-8.934-5.04a1.9,1.9,0,0,0-1.913.015,1.839,1.839,0,0,0-.926,1.6V18.942a1.839,1.839,0,0,0,.926,1.6,1.9,1.9,0,0,0,1.913.015l8.934-5.04a1.845,1.845,0,0,0,0-3.228Z" transform="translate(-8.333 -6.997)" fill="#fff"/>
      </g>
    </g>
  </g>
</svg>
