<svg xmlns="http://www.w3.org/2000/svg" width="63.413" height="70.467" viewBox="0 0 63.413 70.467">
  <g id="svgexport-6_64_" data-name="svgexport-6 (64)" transform="translate(-25.626 0)">
    <g id="Group_239" data-name="Group 239" transform="translate(25.626 0)">
      <path id="Path_80" data-name="Path 80" d="M58.248,33.857H49.667a1.032,1.032,0,0,0,0,2.064h8.581a1.032,1.032,0,0,0,0-2.064Zm0,8.408H49.667a1.032,1.032,0,0,0,0,2.064h8.581a1.032,1.032,0,0,0,0-2.064ZM41.784,52.118a1.032,1.032,0,0,0,0,2.064H52.336a1.032,1.032,0,1,0,0-2.064ZM89.039,9.885a5.174,5.174,0,0,0-5.168-5.168H79.458V3.139A3.143,3.143,0,0,0,76.319,0h-.474a3.142,3.142,0,0,0-3.139,3.139V4.717H41.959V3.139A3.142,3.142,0,0,0,38.82,0h-.474a3.142,3.142,0,0,0-3.139,3.139V4.717H30.794a5.174,5.174,0,0,0-5.168,5.168v55.42a5.167,5.167,0,0,0,5.161,5.161H83.878a5.167,5.167,0,0,0,5.161-5.161ZM74.77,3.139a1.076,1.076,0,0,1,1.074-1.074h.474a1.076,1.076,0,0,1,1.074,1.074V4.717H74.77Zm-37.5,0a1.076,1.076,0,0,1,1.074-1.074h.474a1.076,1.076,0,0,1,1.074,1.074V4.717H37.272Zm49.7,62.167a3.1,3.1,0,0,1-3.1,3.1H30.787a3.1,3.1,0,0,1-3.1-3.1V65.3a5.141,5.141,0,0,0,3.1,1.039H72.645A5.134,5.134,0,0,0,76.3,64.824L86.974,54.149ZM68.438,33.932l2.011-2.983,2,2.991Zm4.91,2.075-.032,15.475-1.877,0L71.472,36ZM69.407,36l-.032,15.475-1.877,0,.032-15.475Zm3.905,17.547,0,1.264a1.254,1.254,0,0,1-1.253,1.25h0l-3.312-.007a1.254,1.254,0,0,1-1.25-1.255l0-1.264Zm1.934,9.412a4.414,4.414,0,0,0,.125-1.041v-6.89a2.359,2.359,0,0,1,2.356-2.356h6.89a4.414,4.414,0,0,0,1.041-.125ZM86.974,19.468H38.3a1.032,1.032,0,0,0,0,2.064h48.67V48.249a2.359,2.359,0,0,1-2.357,2.356h-6.89a4.393,4.393,0,0,0-2.346.677l.034-16.3a1.049,1.049,0,0,0-.174-.58l-3.168-4.741a1.949,1.949,0,0,0-1.619-.867h0a1.948,1.948,0,0,0-1.618.861l-3.186,4.725a1.041,1.041,0,0,0-.178.581L65.432,52.5l0,2.3a3.321,3.321,0,0,0,3.311,3.324l3.312.007h.007a3.3,3.3,0,0,0,1.25-.245v4.038a2.359,2.359,0,0,1-2.357,2.356H30.794a3.107,3.107,0,0,1-3.1-3.1V21.533h6.485a1.032,1.032,0,1,0,0-2.064H27.69V9.885a3.107,3.107,0,0,1,3.1-3.1h4.413V9.817a3.143,3.143,0,0,0,3.139,3.139,1.032,1.032,0,0,0,0-2.064,1.076,1.076,0,0,1-1.074-1.074V6.782H72.706V9.817a3.143,3.143,0,0,0,3.139,3.139,1.032,1.032,0,0,0,0-2.064A1.076,1.076,0,0,1,74.77,9.817V6.782h9.1a3.107,3.107,0,0,1,3.1,3.1ZM40.621,45.074a1.491,1.491,0,0,0,1.489,1.489h3.553a1.491,1.491,0,0,0,1.489-1.489V41.521a1.491,1.491,0,0,0-1.489-1.489H42.11a1.491,1.491,0,0,0-1.489,1.489ZM42.685,42.1h2.4v2.4h-2.4Zm16.6,7.113a1.032,1.032,0,0,0-1.032-1.032H41.784a1.032,1.032,0,0,0,0,2.064H58.248A1.032,1.032,0,0,0,59.28,49.209Zm-22.6,5.154a3.766,3.766,0,0,0,3.761,3.761H59.419a3.766,3.766,0,0,0,3.761-3.761V53.117a1.032,1.032,0,1,0-2.064,0v1.245a1.7,1.7,0,0,1-1.7,1.7H40.441a1.7,1.7,0,0,1-1.7-1.7V31.443a1.7,1.7,0,0,1,1.7-1.7H59.419a1.7,1.7,0,0,1,1.7,1.7V48.989a1.032,1.032,0,1,0,2.064,0V31.443a3.766,3.766,0,0,0-3.761-3.761H40.441a3.766,3.766,0,0,0-3.761,3.761v22.92ZM42.11,38.155h3.553a1.491,1.491,0,0,0,1.489-1.489V33.113a1.491,1.491,0,0,0-1.489-1.489H42.11a1.491,1.491,0,0,0-1.489,1.489v3.553A1.491,1.491,0,0,0,42.11,38.155Zm.575-4.467h2.4v2.4h-2.4Z" transform="translate(-25.626 0)" fill="#fff"/>
    </g>
  </g>
</svg>
