<svg xmlns="http://www.w3.org/2000/svg" width="80.695" height="70.726" viewBox="0 0 80.695 70.726">
  <g id="svgexport-6_76_" data-name="svgexport-6 (76)" transform="translate(0 -26.576)">
    <g id="Group_1633" data-name="Group 1633" transform="translate(0 26.576)">
      <g id="Group_1632" data-name="Group 1632" transform="translate(0 0)">
        <g id="Group_1631" data-name="Group 1631">
          <path id="Path_761" data-name="Path 761" d="M182.22,159.668a8.231,8.231,0,1,0,8.231,8.231A8.231,8.231,0,0,0,182.22,159.668Zm0,12.543a4.312,4.312,0,0,1,0-8.623h0a4.312,4.312,0,0,1,0,8.623Z" transform="translate(-141.355 -134.705)" fill="#fff"/>
          <path id="Path_762" data-name="Path 762" d="M73.693,32.724l-53.5-6.075a7.349,7.349,0,0,0-5.781,1.666,7.447,7.447,0,0,0-2.842,5.1l-.98,8.035H7.548C3.236,41.446,0,45.267,0,49.579V89.658A7.447,7.447,0,0,0,7.251,97.3q.149,0,.3,0h53.8c4.312,0,8.231-3.332,8.231-7.643V88.09A9.8,9.8,0,0,0,73.3,86.522a8.134,8.134,0,0,0,2.842-5.292L80.65,41.446A7.938,7.938,0,0,0,73.693,32.724ZM65.657,89.658c0,2.156-2.156,3.724-4.312,3.724H7.548a3.528,3.528,0,0,1-3.63-3.423q0-.151,0-.3V82.406L19.111,71.235a4.7,4.7,0,0,1,6.076.294l10.681,9.407a9.212,9.212,0,0,0,5.782,2.156,8.917,8.917,0,0,0,4.7-1.274l19.3-11.171v19.01Zm0-23.616L44.3,78.487A5,5,0,0,1,38.513,78L27.734,68.491A8.722,8.722,0,0,0,16.857,68.1L3.922,77.507V49.579c0-2.156,1.47-4.214,3.626-4.214h53.8a4.508,4.508,0,0,1,4.312,4.214V66.042ZM76.734,40.917c0,.013,0,.026,0,.039L72.125,80.74a3.332,3.332,0,0,1-1.274,2.646c-.392.392-1.274.588-1.274.784V49.579a8.427,8.427,0,0,0-8.231-8.133H14.505l.882-7.643a4.508,4.508,0,0,1,1.47-2.548,4.508,4.508,0,0,1,2.94-.784L73.2,36.644A3.92,3.92,0,0,1,76.734,40.917Z" transform="translate(0 -26.576)" fill="#fff"/>
        </g>
      </g>
    </g>
  </g>
</svg>
