<svg xmlns="http://www.w3.org/2000/svg" width="10.979" height="16" viewBox="0 0 10.979 16">
  <g id="svgexport-6_54_" data-name="svgexport-6 (54)" transform="translate(-80.334)">
    <path id="Path_49" data-name="Path 49" d="M89.589,0H82.058a1.726,1.726,0,0,0-1.724,1.724V14.883c0,.824.456,1.117.846,1.117a1.214,1.214,0,0,0,.842-.418l3.8-3.8,3.8,3.8a1.214,1.214,0,0,0,.842.418h0a.778.778,0,0,0,.675-.393,1.393,1.393,0,0,0,.17-.724V1.724A1.726,1.726,0,0,0,89.589,0Zm.786,14.883a1.063,1.063,0,0,1-.005.111,1.051,1.051,0,0,1-.082-.074l-4.133-4.133a.469.469,0,0,0-.663,0l-4.133,4.133a1.059,1.059,0,0,1-.082.074,1.042,1.042,0,0,1-.005-.111V1.724a.787.787,0,0,1,.786-.786h7.531a.787.787,0,0,1,.786.786Z" fill="#ff9200"/>
  </g>
</svg>
