<svg xmlns="http://www.w3.org/2000/svg" width="20.815" height="21.84" viewBox="0 0 20.815 21.84">
  <g id="svgexport-6_45_" data-name="svgexport-6 (45)" transform="translate(-12.01 -0.001)">
    <g id="Group_11" data-name="Group 11" transform="translate(12.01 0.001)">
      <path id="Path_23" data-name="Path 23" d="M116.108,108.588v-7.8a1.85,1.85,0,0,0-3.7,0V102.7l-5.014-5.014a1.6,1.6,0,0,0-2.268,2.268l-1.145-1.145a1.6,1.6,0,1,0-2.268,2.268l.663.663a1.6,1.6,0,1,0-2.268,2.268l1.636,1.636a1.6,1.6,0,0,0-2.268,2.268l5.051,5.051a6.639,6.639,0,0,0,9.389,0l.651-.651a5.257,5.257,0,0,0,1.545-3.729Z" transform="translate(-95.293 -93.073)" fill="#ffb943"/>
      <g id="Group_8" data-name="Group 8" transform="translate(3.711 6.565)">
        <path id="Path_24" data-name="Path 24" d="M101.973,284.529l-.236-.236-.583-.372a1.6,1.6,0,0,0-1.685,2.641l3.119,3.119A6.044,6.044,0,0,1,101.973,284.529Z" transform="translate(-98.999 -278.282)" fill="#ffe28a"/>
        <path id="Path_25" data-name="Path 25" d="M114.3,195.128l.878.878a5.422,5.422,0,0,1,.136-3.612,1.6,1.6,0,0,0-1.014,2.733Z" transform="translate(-113.194 -190.754)" fill="#ffe28a"/>
        <path id="Path_26" data-name="Path 26" d="M238.434,157.664a.319.319,0,0,1-.226-.094l-3.109-3.109a.32.32,0,0,1,.452-.452l3.109,3.109a.32.32,0,0,1-.226.546Z" transform="translate(-229.204 -153.915)" fill="#ffe28a"/>
        <path id="Path_27" data-name="Path 27" d="M174.468,200.061a.319.319,0,0,1-.226-.094l-3.627-3.627a.32.32,0,1,1,.452-.452l3.627,3.627a.32.32,0,0,1-.226.546Z" transform="translate(-167.469 -194.007)" fill="#ffe28a"/>
        <path id="Path_28" data-name="Path 28" d="M158.408,290.364a.319.319,0,0,1-.226-.094l-2.393-2.393a.32.32,0,0,1,.452-.452l2.393,2.393a.32.32,0,0,1-.226.546Z" transform="translate(-153.277 -281.64)" fill="#ffe28a"/>
      </g>
      <g id="Group_9" data-name="Group 9" transform="translate(12.787 0)">
        <path id="Path_29" data-name="Path 29" d="M313.915,55.9a2.427,2.427,0,0,0-1.866-1.8.32.32,0,1,1,.128-.627,3.07,3.07,0,0,1,2.359,2.279.32.32,0,0,1-.622.15Z" transform="translate(-311.793 -51.18)" fill="#4e5660"/>
        <path id="Path_30" data-name="Path 30" d="M320.271,4.5a5.207,5.207,0,0,0-4-3.867A.32.32,0,1,1,316.4.007a5.849,5.849,0,0,1,4.5,4.343.32.32,0,1,1-.622.15Z" transform="translate(-315.832 -0.001)" fill="#4e5660"/>
      </g>
      <g id="Group_10" data-name="Group 10" transform="translate(0 15.886)">
        <path id="Path_31" data-name="Path 31" d="M67.755,375.173a3.069,3.069,0,0,1-2.279-2.359.32.32,0,0,1,.627-.128,2.427,2.427,0,0,0,1.8,1.866.32.32,0,0,1-.15.622Z" transform="translate(-63.189 -372.429)" fill="#4e5660"/>
        <path id="Path_32" data-name="Path 32" d="M16.36,381.527a5.849,5.849,0,0,1-4.343-4.5.32.32,0,0,1,.627-.128,5.207,5.207,0,0,0,3.867,4,.32.32,0,0,1-.15.622Z" transform="translate(-12.01 -376.467)" fill="#4e5660"/>
      </g>
      <path id="Path_33" data-name="Path 33" d="M359.363,269.158a.32.32,0,0,1-.294-.193,5.229,5.229,0,0,1,.334-4.8.32.32,0,1,1,.546.334,4.588,4.588,0,0,0-.293,4.214.32.32,0,0,1-.293.447Z" transform="translate(-343.853 -252.748)" fill="#ffe28a"/>
    </g>
  </g>
</svg>
