<svg xmlns="http://www.w3.org/2000/svg" width="79.628" height="70.26" viewBox="0 0 79.628 70.26">
  <g id="svgexport-6_74_" data-name="svgexport-6 (74)" transform="translate(0 -26)">
    <g id="Group_1626" data-name="Group 1626" transform="translate(0 26)">
      <path id="Path_750" data-name="Path 750" d="M80,336H61.8a1.8,1.8,0,0,0,0,3.6H80a1.8,1.8,0,0,0,0-3.6Z" transform="translate(-49.191 -280.152)" fill="#fff"/>
      <path id="Path_751" data-name="Path 751" d="M231,336H212.8a1.8,1.8,0,1,0,0,3.6H231a1.8,1.8,0,0,0,0-3.6Z" transform="translate(-172.988 -280.152)" fill="#fff"/>
      <path id="Path_752" data-name="Path 752" d="M107.2,86H61.8a1.8,1.8,0,1,0,0,3.6h45.4a1.8,1.8,0,0,0,0-3.6Z" transform="translate(-49.191 -75.191)" fill="#fff"/>
      <path id="Path_753" data-name="Path 753" d="M231,136H212.8a1.8,1.8,0,0,0,0,3.6H231a1.8,1.8,0,0,0,0-3.6Z" transform="translate(-172.988 -116.183)" fill="#fff"/>
      <path id="Path_754" data-name="Path 754" d="M231,186H212.8a1.8,1.8,0,1,0,0,3.6H231a1.8,1.8,0,0,0,0-3.6Z" transform="translate(-172.988 -157.175)" fill="#fff"/>
      <path id="Path_755" data-name="Path 755" d="M231,236H212.8a1.8,1.8,0,1,0,0,3.6H231a1.8,1.8,0,0,0,0-3.6Z" transform="translate(-172.988 -198.168)" fill="#fff"/>
      <path id="Path_756" data-name="Path 756" d="M231,286H212.8a1.8,1.8,0,1,0,0,3.6H231a1.8,1.8,0,0,0,0-3.6Z" transform="translate(-172.988 -239.16)" fill="#fff"/>
      <path id="Path_757" data-name="Path 757" d="M80,286H61.8a1.8,1.8,0,0,0,0,3.6H80a1.8,1.8,0,0,0,0-3.6Z" transform="translate(-49.191 -239.16)" fill="#fff"/>
      <path id="Path_758" data-name="Path 758" d="M80,136H61.8a1.8,1.8,0,0,0-1.8,1.8V156a1.8,1.8,0,0,0,1.8,1.8H80a1.8,1.8,0,0,0,1.8-1.8V137.8A1.8,1.8,0,0,0,80,136Zm-1.8,18.2H63.6V139.6H78.2Z" transform="translate(-49.191 -116.183)" fill="#fff"/>
      <path id="Path_759" data-name="Path 759" d="M76.025,35.008h-5.4V29.6a3.607,3.607,0,0,0-3.6-3.6H3.6A3.607,3.607,0,0,0,0,29.6V87.252A9.018,9.018,0,0,0,9.008,96.26H70.62a9.018,9.018,0,0,0,9.008-9.008V38.611A3.607,3.607,0,0,0,76.025,35.008Zm0,52.245a5.411,5.411,0,0,1-5.4,5.4H9.008a5.411,5.411,0,0,1-5.4-5.4V29.6H67.017V84.55a4.509,4.509,0,0,0,4.5,4.5,1.8,1.8,0,0,0,0-3.6.9.9,0,0,1-.9-.9V38.611h5.4Z" transform="translate(0 -26)" fill="#fff"/>
    </g>
  </g>
</svg>
