<svg xmlns="http://www.w3.org/2000/svg" width="26.038" height="26.038" viewBox="0 0 26.038 26.038">
  <g id="more" transform="translate(-45 -769)">
    <g id="svgexport-6_48_" data-name="svgexport-6 (48)" transform="translate(45 769)">
      <g id="Group_14" data-name="Group 14">
        <g id="Group_13" data-name="Group 13">
          <path id="Path_37" data-name="Path 37" d="M8.442,0H3.814A3.818,3.818,0,0,0,0,3.814V8.442a3.818,3.818,0,0,0,3.814,3.814H8.442a3.818,3.818,0,0,0,3.814-3.814V3.814A3.818,3.818,0,0,0,8.442,0ZM10.73,8.442A2.291,2.291,0,0,1,8.442,10.73H3.814A2.291,2.291,0,0,1,1.526,8.442V3.814A2.291,2.291,0,0,1,3.814,1.526H8.442A2.291,2.291,0,0,1,10.73,3.814Z" fill="#4d80e4"/>
        </g>
      </g>
      <g id="Group_16" data-name="Group 16" transform="translate(13.782 13.782)">
        <g id="Group_15" data-name="Group 15">
          <path id="Path_38" data-name="Path 38" d="M279.442,271h-4.628A3.819,3.819,0,0,0,271,274.814v4.628a3.819,3.819,0,0,0,3.814,3.814h4.628a3.819,3.819,0,0,0,3.814-3.814v-4.628A3.819,3.819,0,0,0,279.442,271Zm2.288,8.442a2.291,2.291,0,0,1-2.288,2.288h-4.628a2.291,2.291,0,0,1-2.289-2.288v-4.628a2.291,2.291,0,0,1,2.289-2.289h4.628a2.291,2.291,0,0,1,2.288,2.289Z" transform="translate(-271 -271)" fill="#4d80e4"/>
        </g>
      </g>
      <g id="Group_18" data-name="Group 18">
        <g id="Group_17" data-name="Group 17">
          <path id="Path_39" data-name="Path 39" d="M22.224,0H17.6a3.818,3.818,0,0,0-3.814,3.814V8.442a5.346,5.346,0,0,1-5.34,5.34H3.814A3.818,3.818,0,0,0,0,17.6v4.628a3.818,3.818,0,0,0,3.814,3.814H8.442a3.818,3.818,0,0,0,3.814-3.814V17.6a5.346,5.346,0,0,1,5.34-5.34h4.628a3.818,3.818,0,0,0,3.814-3.814V3.814A3.818,3.818,0,0,0,22.224,0ZM10.73,17.6v4.628a2.291,2.291,0,0,1-2.288,2.288H3.814a2.291,2.291,0,0,1-2.288-2.288V17.6a2.291,2.291,0,0,1,2.288-2.288H8.442a6.825,6.825,0,0,0,2.96-.671A6.825,6.825,0,0,0,10.73,17.6ZM24.512,8.442a2.291,2.291,0,0,1-2.288,2.288H17.6a6.825,6.825,0,0,0-2.96.671,6.825,6.825,0,0,0,.671-2.96V3.814A2.291,2.291,0,0,1,17.6,1.526h4.628a2.291,2.291,0,0,1,2.288,2.288Z" fill="#4d80e4"/>
        </g>
      </g>
    </g>
  </g>
</svg>
