<svg xmlns="http://www.w3.org/2000/svg" width="19.45" height="21.533" viewBox="0 0 19.45 21.533">
  <g id="svgexport-6_41_" data-name="svgexport-6 (41)" transform="translate(-17.958 0)">
    <g id="Group_7" data-name="Group 7" transform="translate(17.958 0)">
      <g id="Group_6" data-name="Group 6" transform="translate(0 0)">
        <path id="Path_14" data-name="Path 14" d="M34.629,13.618V9.527a7.16,7.16,0,0,0-4.623-6.679,2.43,2.43,0,0,0,.049-.476,2.372,2.372,0,1,0-4.744,0,2.54,2.54,0,0,0,.045.462,6.941,6.941,0,0,0-4.619,6.543v4.241a.275.275,0,0,1-.274.274,2.492,2.492,0,0,0-2.494,2.2,2.432,2.432,0,0,0,2.421,2.667h4.189a3.124,3.124,0,0,0,6.21,0h4.189A2.432,2.432,0,0,0,37.4,16.088a2.494,2.494,0,0,0-2.494-2.2.273.273,0,0,1-.274-.274ZM27.683,1.389a.984.984,0,0,1,.983.983.849.849,0,0,1-.014.132,6.155,6.155,0,0,0-.715-.066,7.157,7.157,0,0,0-1.223.069.849.849,0,0,1-.014-.132.985.985,0,0,1,.983-.986Zm0,18.755a1.743,1.743,0,0,1-1.7-1.389h3.4A1.742,1.742,0,0,1,27.683,20.144Zm8.332-3.925a1.038,1.038,0,0,1-1.038,1.146H20.39a1.044,1.044,0,0,1-1.038-1.146,1.092,1.092,0,0,1,1.111-.938,1.666,1.666,0,0,0,1.664-1.664V9.377A5.559,5.559,0,0,1,27.683,3.82c.069,0,.135,0,.2,0a5.682,5.682,0,0,1,5.352,5.7v4.091A1.666,1.666,0,0,0,34.9,15.282,1.094,1.094,0,0,1,36.015,16.219Z" transform="translate(-17.958 0)" fill="#565656"/>
      </g>
    </g>
  </g>
</svg>
