<svg xmlns="http://www.w3.org/2000/svg" width="69.604" height="70.436" viewBox="0 0 69.604 70.436">
  <g id="svgexport-6_65_" data-name="svgexport-6 (65)" transform="translate(-3.027)">
    <g id="Group_241" data-name="Group 241" transform="translate(3.027)">
      <path id="Path_81" data-name="Path 81" d="M68.736,0H21.5a3.9,3.9,0,0,0-3.895,3.893V8.759a1.032,1.032,0,1,0,2.064,0V3.893A1.832,1.832,0,0,1,21.5,2.064H68.736a1.832,1.832,0,0,1,1.831,1.83V59.643h-4.92a1.032,1.032,0,1,0,0,2.064h4.92v4.837a1.832,1.832,0,0,1-1.831,1.83H21.5a1.832,1.832,0,0,1-1.831-1.83V61.706H60.823a1.032,1.032,0,1,0,0-2.064H19.671V52.676L22.994,55.6a2.255,2.255,0,0,0,3.685-1.966l-.746-5.632a1.058,1.058,0,0,0-.113-.35L19.671,36.131V13.585a1.032,1.032,0,1,0-2.064,0v18.68L10.7,19.326a3.044,3.044,0,0,0-4.118-1.253L4.639,19.112a3.044,3.044,0,0,0-1.252,4.118l14.221,26.65V66.543A3.9,3.9,0,0,0,21.5,70.436H68.736a3.9,3.9,0,0,0,3.895-3.893V3.893A3.9,3.9,0,0,0,68.736,0ZM24.547,54.077a.148.148,0,0,1-.188-.022l-3.146-2.772,2.87-1.532.551,4.156a.149.149,0,0,1-.087.169ZM5.134,21.513a.973.973,0,0,1,.476-.579l1.946-1.039a1.015,1.015,0,0,1,1.326.4L23.514,47.717l-3.676,1.961L5.207,22.259a.975.975,0,0,1-.073-.747Z" transform="translate(-3.027)" fill="#fff"/>
      <path id="Path_82" data-name="Path 82" d="M289.92,463.713a1.032,1.032,0,1,0,0,2.064h3.468a1.032,1.032,0,1,0,0-2.064Z" transform="translate(-249.562 -399.919)" fill="#fff"/>
      <path id="Path_83" data-name="Path 83" d="M191.985,209.917h4.1a2.142,2.142,0,0,0,2.14-2.14v-4.1a2.142,2.142,0,0,0-2.14-2.139h-4.1a2.142,2.142,0,0,0-2.139,2.139v4.1A2.142,2.142,0,0,0,191.985,209.917Zm-.076-6.238a.076.076,0,0,1,.076-.076h4.1a.076.076,0,0,1,.076.076v4.1a.076.076,0,0,1-.076.076h-4.1a.076.076,0,0,1-.076-.076Z" transform="translate(-164.145 -173.814)" fill="#fff"/>
      <path id="Path_84" data-name="Path 84" d="M289.2,224.486H269.262a1.032,1.032,0,0,0,0,2.064H289.2a1.032,1.032,0,0,0,0-2.064Z" transform="translate(-231.746 -193.603)" fill="#fff"/>
      <path id="Path_85" data-name="Path 85" d="M189.845,280.688a2.142,2.142,0,0,0,2.14,2.14h4.1a2.142,2.142,0,0,0,2.14-2.14v-4.1a2.142,2.142,0,0,0-2.14-2.139h-4.1a2.142,2.142,0,0,0-2.14,2.139Zm2.064-4.1a.076.076,0,0,1,.076-.076h4.1a.076.076,0,0,1,.076.076v4.1a.076.076,0,0,1-.076.076h-4.1a.076.076,0,0,1-.076-.076Z" transform="translate(-164.144 -236.694)" fill="#fff"/>
      <path id="Path_86" data-name="Path 86" d="M289.2,297.4H269.262a1.032,1.032,0,0,0,0,2.064H289.2a1.032,1.032,0,0,0,0-2.064Z" transform="translate(-231.746 -256.484)" fill="#fff"/>
      <path id="Path_87" data-name="Path 87" d="M189.845,353.6a2.142,2.142,0,0,0,2.14,2.14h4.1a2.142,2.142,0,0,0,2.14-2.14v-4.1a2.142,2.142,0,0,0-2.14-2.14h-4.1a2.142,2.142,0,0,0-2.14,2.14Zm2.064-4.1a.076.076,0,0,1,.076-.076h4.1a.076.076,0,0,1,.076.076v4.1a.076.076,0,0,1-.076.076h-4.1a.076.076,0,0,1-.076-.076Z" transform="translate(-164.144 -299.575)" fill="#fff"/>
      <path id="Path_88" data-name="Path 88" d="M289.2,370.309H269.262a1.032,1.032,0,1,0,0,2.064H289.2a1.032,1.032,0,1,0,0-2.064Z" transform="translate(-231.746 -319.365)" fill="#fff"/>
      <path id="Path_89" data-name="Path 89" d="M265.038,37.678A7.008,7.008,0,0,0,260.8,50.272v3.7a3.106,3.106,0,0,0,3.1,3.1h2.266a3.106,3.106,0,0,0,3.1-3.1v-3.7a7.008,7.008,0,0,0-4.235-12.594Zm2.171,16.3a1.04,1.04,0,0,1-1.039,1.039H263.9a1.04,1.04,0,0,1-1.039-1.039V51.354a6.99,6.99,0,0,0,4.343,0Zm-1.139-4.447V45.873a1.032,1.032,0,1,0-2.064,0v3.655a4.948,4.948,0,1,1,2.064,0Z" transform="translate(-222.946 -32.495)" fill="#fff"/>
      <path id="Path_90" data-name="Path 90" d="M19.014,9.161A1.032,1.032,0,0,0,20.046,8.13a6.073,6.073,0,0,1,6.066-6.066,1.032,1.032,0,1,0,0-2.064,8.139,8.139,0,0,0-8.13,8.13A1.032,1.032,0,0,0,19.014,9.161Z" transform="translate(-15.925)" fill="#fff"/>
      <path id="Path_91" data-name="Path 91" d="M50.261,28a4.282,4.282,0,0,0-4.278,4.278,1.032,1.032,0,1,0,2.064,0,2.217,2.217,0,0,1,2.214-2.214,1.032,1.032,0,1,0,0-2.064Z" transform="translate(-40.073 -24.148)" fill="#fff"/>
    </g>
  </g>
</svg>
