<svg xmlns="http://www.w3.org/2000/svg" width="9.756" height="9.349" viewBox="0 0 9.756 9.349">
  <g id="svgexport-6_49_" data-name="svgexport-6 (49)" transform="translate(-0.001 -0.492)">
    <path id="Path_42" data-name="Path 42" d="M2.184,9.842a.519.519,0,0,1-.505-.634l.628-2.765L.178,4.576a.519.519,0,0,1,.294-.907l2.816-.256L4.4.807a.518.518,0,0,1,.954,0L6.469,3.413l2.816.256a.519.519,0,0,1,.295.907L7.451,6.442l.628,2.765a.518.518,0,0,1-.771.56L4.878,8.316,2.45,9.768a.52.52,0,0,1-.266.074ZM4.878,7.691a.52.52,0,0,1,.266.074L7.436,9.135,6.844,6.526a.518.518,0,0,1,.164-.505l2.01-1.763L6.359,4.016A.518.518,0,0,1,5.928,3.7L4.878,1.243,3.828,3.7a.516.516,0,0,1-.43.313L.739,4.257,2.748,6.02a.517.517,0,0,1,.164.506L2.321,9.135l2.292-1.37a.52.52,0,0,1,.266-.074ZM3.267,3.464h0Zm3.223,0h0Zm0,0" transform="translate(0 0)" fill="#818181"/>
  </g>
</svg>
