<svg xmlns="http://www.w3.org/2000/svg" width="36.352" height="27.533" viewBox="0 0 36.352 27.533">
  <g id="svgexport-6_46_" data-name="svgexport-6 (46)" transform="translate(0.001 0)">
    <path id="Path_34" data-name="Path 34" d="M201.16,111.1l-8.031-4.394A1.475,1.475,0,0,0,190.946,108v8.713a1.472,1.472,0,0,0,2.174,1.3l8.031-4.318a1.475,1.475,0,0,0,.009-2.593Zm-8.084,4.517v-6.512l6,3.284Zm0,0" transform="translate(-177.39 -98.96)" fill="#4d80e4"/>
    <path id="Path_35" data-name="Path 35" d="M36.084,6.5l0-.017c-.031-.293-.337-2.9-1.6-4.219A5.915,5.915,0,0,0,30.562.426L30.381.4,30.318.4C25.512.048,18.254,0,18.181,0h-.013C18.1,0,10.838.048,5.989.4L5.925.4l-.17.021A5.766,5.766,0,0,0,1.86,2.318,8.712,8.712,0,0,0,.271,6.461l0,.037C.256,6.62,0,9.519,0,12.428v2.72c0,2.91.257,5.808.267,5.93l0,.018a8.232,8.232,0,0,0,1.6,4.167,6.036,6.036,0,0,0,4.049,1.811c.148.017.275.031.362.047l.084.012c2.775.264,11.475.394,11.844.4h.022c.073,0,7.33-.048,12.136-.4l.064-.007c.061-.008.129-.015.2-.023a5.633,5.633,0,0,0,3.861-1.847,8.711,8.711,0,0,0,1.589-4.143l0-.037c.011-.122.268-3.02.268-5.93v-2.72c0-2.91-.257-5.808-.268-5.93Zm-1.863,8.65c0,2.693-.235,5.467-.257,5.722a6.763,6.763,0,0,1-1.045,2.951A3.5,3.5,0,0,1,30.4,24.988l-.227.026c-4.648.336-11.632.388-11.954.39-.361-.005-8.933-.136-11.624-.386-.138-.022-.287-.04-.444-.057a3.983,3.983,0,0,1-2.724-1.138l-.02-.021a6.136,6.136,0,0,1-1.024-2.922c-.017-.192-.258-3-.258-5.73v-2.72c0-2.69.235-5.461.257-5.721A6.625,6.625,0,0,1,3.432,3.756,3.676,3.676,0,0,1,6,2.541l.174-.021c4.716-.338,11.75-.388,12-.39s7.284.052,11.958.39l.187.022a3.815,3.815,0,0,1,2.609,1.182l.009.009A6.235,6.235,0,0,1,33.962,6.7c.016.182.258,2.994.258,5.731Zm0,0" transform="translate(0 0)" fill="#4d80e4"/>
  </g>
</svg>
